<?xml version="1.0" encoding="UTF-8"?>
<svg xmlns="http://www.w3.org/2000/svg" xmlns:xlink="http://www.w3.org/1999/xlink" width="128px" height="128px"
    viewBox="0 0 128 128" version="1.1">
    
    <g id="surface1">
        <path style=" stroke:none;fill-rule:nonzero;fill:red;fill-opacity:1;"
            d="M 105.5 128 L 22.5 128 C 10.074219 128 0 117.925781 0 105.5 L 0 22.5 C 0 10.074219 10.074219 0 22.5 0 L 105.5 0 C 117.925781 0 128 10.074219 128 22.5 L 128 105.5 C 128 117.925781 117.925781 128 105.5 128 Z M 105.5 128 " />
        <path style=" stroke:none;fill-rule:nonzero;fill:rgb(100%,100%,100%);fill-opacity:1;"
            d="M 47.871094 74.046875 C 45.921875 74.046875 44.734375 74.433594 43.617188 75.679688 L 45.183594 77.089844 C 45.824219 76.289062 46.464844 76 47.777344 76 C 49.632812 76 50.367188 76.671875 50.367188 78.113281 L 50.367188 78.910156 L 47.230469 78.910156 C 44.511719 78.910156 43.136719 80.257812 43.136719 82.144531 C 43.136719 83.105469 43.457031 83.96875 44.0625 84.574219 C 44.800781 85.28125 45.761719 85.601562 47.230469 85.601562 C 48.703125 85.601562 49.535156 85.28125 50.398438 84.449219 L 50.398438 85.472656 L 52.734375 85.472656 L 52.734375 77.953125 C 52.769531 75.359375 51.136719 74.046875 47.871094 74.046875 Z M 50.367188 81.375 C 50.367188 82.175781 50.207031 82.71875 49.855469 83.039062 C 49.214844 83.617188 48.542969 83.679688 47.648438 83.679688 C 46.144531 83.679688 45.472656 83.105469 45.472656 82.078125 C 45.472656 81.054688 46.207031 80.449219 47.585938 80.449219 L 50.367188 80.449219 Z M 82.945312 53.375 L 82.144531 51.039062 L 78.175781 51.039062 L 77.375 53.375 L 75.390625 53.375 L 79.296875 42.207031 L 81.089844 42.207031 L 84.992188 53.375 Z M 81.441406 49.089844 L 80.128906 45.34375 L 78.816406 49.089844 Z M 81.441406 49.089844 " />
        <path style=" stroke:none;fill-rule:nonzero;fill:rgb(100%,100%,100%);fill-opacity:1;"
            d="M 40.832031 92.480469 C 36.480469 92.480469 32.960938 88.832031 32.960938 84.382812 L 32.960938 75.550781 C 32.960938 71.070312 36.480469 67.425781 40.832031 67.425781 L 55.9375 67.425781 C 60.289062 67.425781 63.808594 71.070312 63.808594 75.550781 L 63.808594 84.382812 C 63.808594 88.863281 60.289062 92.511719 55.9375 92.511719 Z M 40.832031 72.160156 C 39.039062 72.160156 37.566406 73.664062 37.566406 75.550781 L 37.566406 84.382812 C 37.566406 86.238281 39.039062 87.777344 40.832031 87.777344 L 55.902344 87.777344 C 57.695312 87.777344 59.167969 86.273438 59.167969 84.382812 L 59.167969 75.550781 C 59.167969 73.695312 57.695312 72.160156 55.902344 72.160156 Z M 71.199219 91.457031 C 69.953125 91.457031 69.246094 90.464844 69.214844 89.503906 C 69.183594 88.574219 69.726562 87.457031 71.457031 87.296875 C 73.089844 87.007812 74.335938 86.753906 75.839844 86.238281 L 75.902344 86.207031 L 75.96875 86.207031 C 76.542969 86.207031 78.496094 84.800781 80.128906 82.847656 L 80.160156 82.785156 L 80.257812 82.71875 L 80.289062 82.71875 C 81.183594 82.273438 82.71875 79.679688 83.519531 76.703125 C 83.550781 76.511719 83.585938 76.351562 83.617188 76.191406 L 83.648438 76.03125 C 83.839844 74.976562 84.03125 74.046875 84.03125 72.960938 C 84.03125 72.832031 84.03125 72.640625 84 72.320312 C 83.96875 72.128906 83.96875 71.96875 83.96875 71.777344 L 81.632812 74.625 C 81.023438 75.296875 80.449219 75.425781 80.0625 75.425781 C 79.808594 75.425781 79.519531 75.359375 79.265625 75.230469 C 78.65625 74.910156 78.304688 74.496094 78.175781 73.953125 C 78.015625 73.246094 78.398438 72.609375 78.558594 72.382812 L 78.59375 72.351562 L 83.902344 65.761719 C 84.097656 65.566406 85.183594 64.542969 86.335938 64.542969 C 87.96875 64.542969 88.863281 65.984375 89.089844 66.367188 L 93.855469 73.246094 C 93.855469 73.246094 94.625 74.335938 93.28125 75.742188 C 92.832031 76.191406 92.320312 76.449219 91.839844 76.449219 C 91.230469 76.449219 90.847656 76.097656 90.785156 76.03125 L 88.128906 72.480469 L 88.128906 73.535156 C 88.128906 77.34375 86.847656 81.023438 84.320312 84.480469 C 81.792969 87.648438 78.910156 89.695312 75.519531 90.816406 C 75.390625 90.878906 75.199219 90.945312 74.6875 91.070312 L 74.433594 91.136719 C 73.664062 91.328125 72.960938 91.457031 72.351562 91.550781 L 71.199219 91.550781 Z M 42.65625 63.230469 C 40.863281 63.230469 39.96875 61.566406 39.871094 61.34375 L 35.390625 54.273438 C 35.390625 54.273438 34.625 53.183594 35.96875 51.808594 C 36.449219 51.359375 36.929688 51.105469 37.40625 51.105469 C 38.015625 51.105469 38.398438 51.457031 38.464844 51.519531 L 41.121094 55.039062 L 41.121094 54.558594 C 41.152344 52.960938 41.34375 51.359375 41.664062 49.824219 C 42.398438 46.785156 44.097656 43.9375 46.816406 41.089844 C 49.441406 38.65625 52.480469 37.089844 55.550781 36.574219 C 56.640625 36.289062 57.726562 36.289062 58.816406 36.289062 C 59.425781 36.289062 59.777344 37.121094 59.808594 37.921875 C 59.871094 39.039062 59.328125 40.289062 57.566406 40.480469 L 57.441406 40.511719 C 56.191406 40.769531 54.910156 41.023438 53.695312 41.535156 C 51.296875 42.527344 49.472656 44.03125 47.777344 46.335938 L 47.488281 46.753906 L 47.359375 46.65625 C 46.976562 47.199219 46.046875 48.894531 45.566406 51.105469 L 45.535156 51.296875 L 45.503906 51.390625 L 45.503906 51.425781 C 45.472656 51.550781 45.183594 52.992188 45.183594 54.625 L 45.183594 54.878906 C 45.183594 55.070312 45.214844 55.296875 45.214844 55.488281 C 45.214844 55.585938 45.214844 55.648438 45.246094 55.742188 L 47.359375 53.183594 C 47.96875 52.511719 48.542969 52.382812 48.929688 52.382812 C 49.214844 52.382812 49.472656 52.449219 49.726562 52.574219 C 50.335938 52.894531 50.6875 53.3125 50.816406 53.824219 C 50.910156 54.304688 50.785156 54.878906 50.433594 55.390625 L 50.433594 55.425781 L 45.121094 61.984375 C 44.894531 62.207031 43.808594 63.230469 42.65625 63.230469 Z M 72.097656 60.574219 C 67.742188 60.574219 64.222656 56.929688 64.222656 52.449219 L 64.222656 43.648438 C 64.222656 39.167969 67.742188 35.519531 72.097656 35.519531 L 87.167969 35.519531 C 91.519531 35.519531 95.039062 39.167969 95.039062 43.648438 L 95.039062 52.480469 C 95.039062 56.960938 91.519531 60.609375 87.167969 60.609375 Z M 72.097656 40.257812 C 70.304688 40.257812 68.832031 41.761719 68.832031 43.648438 L 68.832031 52.480469 C 68.832031 54.335938 70.304688 55.871094 72.097656 55.871094 L 87.167969 55.871094 C 88.960938 55.871094 90.433594 54.367188 90.433594 52.480469 L 90.433594 43.648438 C 90.433594 41.792969 88.960938 40.257812 87.167969 40.257812 Z M 72.097656 40.257812 " />
    </g>
</svg>